<svg xmlns="http://www.w3.org/2000/svg" width="305" height="385" fill="none"><g opacity=".4"><g filter="url(#a)"><path fill="#000" d="M228.914 163.393h-248.86v2.928h248.86v-2.928Z"/></g><g filter="url(#b)"><path fill="#000" d="M-28.732 151.685h-2.928v-17.567c0-.439.146-.732.439-1.024l89.59-89.297c.292-.293.585-.439 1.024-.439h81.684v2.928H59.979l-88.711 88.418v16.981Z"/></g><g filter="url(#c)"><path fill="#000" d="M183.53 299.537H73.739c-.44 0-.732-.147-1.025-.44L-31.22 195.162c-.293-.293-.44-.585-.44-1.025v-14.638h2.929v14.053L74.324 296.609H183.53v2.928Z"/></g><g filter="url(#d)"><path fill="#000" d="M110.335 205.848H51.487c-.44 0-.732-.146-1.025-.439l-39.525-39.232 2.05-2.049 39.085 38.792h58.263v2.928Z"/></g><g filter="url(#e)"><path fill="#000" d="m69.64 166.029-2.05-2.049 39.378-39.671c.293-.293.586-.439 1.025-.439h59.433v2.928h-58.848l-38.939 39.231Z"/></g><g filter="url(#f)"><path fill="#000" d="M293.319 91.665H60.855c-.44 0-.732-.146-1.025-.44L36.555 67.659l2.05-2.05 22.836 23.13h231.878v2.927Z"/></g><g filter="url(#g)"><path fill="#000" d="m86.038 45.849-2.05-2.05L122.05 5.74c.293-.293.586-.44 1.025-.44h121.941v2.928H123.659L86.038 45.85Z"/></g><g filter="url(#h)"><path fill="#000" d="m109.75 371.268-58.994-58.994c-.293-.293-.44-.586-.44-1.025v-35.133h2.928v34.547l58.555 58.555-2.049 2.05Z"/></g><g filter="url(#i)"><path fill="#000" d="m96.424 298.655-2.049-2.05 38.793-39.085c.293-.293.585-.439 1.024-.439h147.413v2.927H134.924l-38.5 38.647Z"/></g><g filter="url(#j)"><path fill="#000" d="M233.298 340.526h-65.582c-.439 0-.732-.146-1.024-.439l-41.282-41.281 2.05-2.05 40.842 40.843h64.996v2.927Z"/></g><g filter="url(#k)"><path fill="#000" d="M245.011 13.494a6.734 6.734 0 1 0 0-13.468 6.734 6.734 0 0 0 0 13.468Z"/></g><g filter="url(#l)"><path fill="#000" d="M154.248 60.337c-8.491 0-15.518-6.88-15.518-15.517 0-8.636 6.881-15.517 15.518-15.517 8.636 0 15.517 6.88 15.517 15.517s-7.027 15.517-15.517 15.517Zm0-28.106c-6.881 0-12.59 5.71-12.59 12.59s5.709 12.589 12.59 12.589c6.88 0 12.589-5.71 12.589-12.59s-5.709-12.589-12.589-12.589Z"/></g><g filter="url(#m)"><path fill="#000" d="M300.054 90.494c0 3.66-3.075 6.734-6.734 6.734-3.66 0-6.734-3.074-6.734-6.734s3.074-6.734 6.734-6.734c3.659 0 6.734 2.928 6.734 6.734Z"/></g><g filter="url(#n)"><path fill="#000" d="M167.421 132.068a6.734 6.734 0 1 0 0-13.468 6.734 6.734 0 0 0 0 13.468Z"/></g><g filter="url(#o)"><path fill="#000" d="M242.084 180.377c-8.491 0-15.518-6.881-15.518-15.517 0-8.637 6.881-15.518 15.518-15.518 8.636 0 15.517 6.881 15.517 15.518 0 8.636-7.027 15.517-15.517 15.517Zm0-28.107c-6.881 0-12.59 5.709-12.59 12.59 0 6.88 5.709 12.589 12.59 12.589 6.88 0 12.589-5.709 12.589-12.589 0-6.881-5.709-12.59-12.589-12.59Z"/></g><g filter="url(#p)"><path fill="#000" d="M110.328 211.119a6.733 6.733 0 0 0 6.733-6.734 6.733 6.733 0 1 0-13.467 0 6.734 6.734 0 0 0 6.734 6.734Z"/></g><g filter="url(#q)"><path fill="#000" d="M281.609 265.283a6.734 6.734 0 1 0 0-13.468 6.734 6.734 0 0 0 0 13.468Z"/></g><g filter="url(#r)"><path fill="#000" d="M196.705 313.298c-8.491 0-15.517-6.88-15.517-15.517s6.88-15.517 15.517-15.517 15.517 6.88 15.517 15.517-7.027 15.517-15.517 15.517Zm0-28.106c-6.88 0-12.59 5.709-12.59 12.589 0 6.881 5.71 12.59 12.59 12.59s12.589-5.709 12.589-12.59c0-6.88-5.709-12.589-12.589-12.589Z"/></g><g filter="url(#s)"><path fill="#000" d="M233.3 345.794a6.733 6.733 0 1 0 0-13.467 6.734 6.734 0 0 0 0 13.467Z"/></g><g filter="url(#t)"><path fill="#000" d="M117.511 370.24c0 3.66-3.075 6.734-6.734 6.734-3.66 0-6.734-3.074-6.734-6.734s3.074-6.734 6.734-6.734c3.806.147 6.734 3.074 6.734 6.734Z"/></g></g><defs><filter id="a" width="256.859" height="10.928" x="-23.945" y="163.393" color-interpolation-filters="sRGB" filterUnits="userSpaceOnUse"><feFlood flood-opacity="0" result="BackgroundImageFix"/><feColorMatrix in="SourceAlpha" result="hardAlpha" values="0 0 0 0 0 0 0 0 0 0 0 0 0 0 0 0 0 0 127 0"/><feOffset dy="4"/><feGaussianBlur stdDeviation="2"/><feComposite in2="hardAlpha" operator="out"/><feColorMatrix values="0 0 0 0 0 0 0 0 0 0 0 0 0 0 0 0 0 0 0.25 0"/><feBlend in2="BackgroundImageFix" result="effect1_dropShadow_1_1299"/><feBlend in="SourceGraphic" in2="effect1_dropShadow_1_1299" result="shape"/></filter><filter id="b" width="180.737" height="116.327" x="-35.66" y="43.358" color-interpolation-filters="sRGB" filterUnits="userSpaceOnUse"><feFlood flood-opacity="0" result="BackgroundImageFix"/><feColorMatrix in="SourceAlpha" result="hardAlpha" values="0 0 0 0 0 0 0 0 0 0 0 0 0 0 0 0 0 0 127 0"/><feOffset dy="4"/><feGaussianBlur stdDeviation="2"/><feComposite in2="hardAlpha" operator="out"/><feColorMatrix values="0 0 0 0 0 0 0 0 0 0 0 0 0 0 0 0 0 0 0.25 0"/><feBlend in2="BackgroundImageFix" result="effect1_dropShadow_1_1299"/><feBlend in="SourceGraphic" in2="effect1_dropShadow_1_1299" result="shape"/></filter><filter id="c" width="223.19" height="128.038" x="-35.66" y="179.499" color-interpolation-filters="sRGB" filterUnits="userSpaceOnUse"><feFlood flood-opacity="0" result="BackgroundImageFix"/><feColorMatrix in="SourceAlpha" result="hardAlpha" values="0 0 0 0 0 0 0 0 0 0 0 0 0 0 0 0 0 0 127 0"/><feOffset dy="4"/><feGaussianBlur stdDeviation="2"/><feComposite in2="hardAlpha" operator="out"/><feColorMatrix values="0 0 0 0 0 0 0 0 0 0 0 0 0 0 0 0 0 0 0.25 0"/><feBlend in2="BackgroundImageFix" result="effect1_dropShadow_1_1299"/><feBlend in="SourceGraphic" in2="effect1_dropShadow_1_1299" result="shape"/></filter><filter id="d" width="107.397" height="49.721" x="6.938" y="164.128" color-interpolation-filters="sRGB" filterUnits="userSpaceOnUse"><feFlood flood-opacity="0" result="BackgroundImageFix"/><feColorMatrix in="SourceAlpha" result="hardAlpha" values="0 0 0 0 0 0 0 0 0 0 0 0 0 0 0 0 0 0 127 0"/><feOffset dy="4"/><feGaussianBlur stdDeviation="2"/><feComposite in2="hardAlpha" operator="out"/><feColorMatrix values="0 0 0 0 0 0 0 0 0 0 0 0 0 0 0 0 0 0 0.25 0"/><feBlend in2="BackgroundImageFix" result="effect1_dropShadow_1_1299"/><feBlend in="SourceGraphic" in2="effect1_dropShadow_1_1299" result="shape"/></filter><filter id="e" width="107.836" height="50.16" x="63.59" y="123.87" color-interpolation-filters="sRGB" filterUnits="userSpaceOnUse"><feFlood flood-opacity="0" result="BackgroundImageFix"/><feColorMatrix in="SourceAlpha" result="hardAlpha" values="0 0 0 0 0 0 0 0 0 0 0 0 0 0 0 0 0 0 127 0"/><feOffset dy="4"/><feGaussianBlur stdDeviation="2"/><feComposite in2="hardAlpha" operator="out"/><feColorMatrix values="0 0 0 0 0 0 0 0 0 0 0 0 0 0 0 0 0 0 0.25 0"/><feBlend in2="BackgroundImageFix" result="effect1_dropShadow_1_1299"/><feBlend in="SourceGraphic" in2="effect1_dropShadow_1_1299" result="shape"/></filter><filter id="f" width="264.764" height="34.057" x="32.555" y="65.608" color-interpolation-filters="sRGB" filterUnits="userSpaceOnUse"><feFlood flood-opacity="0" result="BackgroundImageFix"/><feColorMatrix in="SourceAlpha" result="hardAlpha" values="0 0 0 0 0 0 0 0 0 0 0 0 0 0 0 0 0 0 127 0"/><feOffset dy="4"/><feGaussianBlur stdDeviation="2"/><feComposite in2="hardAlpha" operator="out"/><feColorMatrix values="0 0 0 0 0 0 0 0 0 0 0 0 0 0 0 0 0 0 0.25 0"/><feBlend in2="BackgroundImageFix" result="effect1_dropShadow_1_1299"/><feBlend in="SourceGraphic" in2="effect1_dropShadow_1_1299" result="shape"/></filter><filter id="g" width="169.026" height="48.549" x="79.988" y="5.299" color-interpolation-filters="sRGB" filterUnits="userSpaceOnUse"><feFlood flood-opacity="0" result="BackgroundImageFix"/><feColorMatrix in="SourceAlpha" result="hardAlpha" values="0 0 0 0 0 0 0 0 0 0 0 0 0 0 0 0 0 0 127 0"/><feOffset dy="4"/><feGaussianBlur stdDeviation="2"/><feComposite in2="hardAlpha" operator="out"/><feColorMatrix values="0 0 0 0 0 0 0 0 0 0 0 0 0 0 0 0 0 0 0.25 0"/><feBlend in2="BackgroundImageFix" result="effect1_dropShadow_1_1299"/><feBlend in="SourceGraphic" in2="effect1_dropShadow_1_1299" result="shape"/></filter><filter id="h" width="69.483" height="103.152" x="46.316" y="276.116" color-interpolation-filters="sRGB" filterUnits="userSpaceOnUse"><feFlood flood-opacity="0" result="BackgroundImageFix"/><feColorMatrix in="SourceAlpha" result="hardAlpha" values="0 0 0 0 0 0 0 0 0 0 0 0 0 0 0 0 0 0 127 0"/><feOffset dy="4"/><feGaussianBlur stdDeviation="2"/><feComposite in2="hardAlpha" operator="out"/><feColorMatrix values="0 0 0 0 0 0 0 0 0 0 0 0 0 0 0 0 0 0 0.25 0"/><feBlend in2="BackgroundImageFix" result="effect1_dropShadow_1_1299"/><feBlend in="SourceGraphic" in2="effect1_dropShadow_1_1299" result="shape"/></filter><filter id="i" width="195.23" height="49.574" x="90.375" y="257.081" color-interpolation-filters="sRGB" filterUnits="userSpaceOnUse"><feFlood flood-opacity="0" result="BackgroundImageFix"/><feColorMatrix in="SourceAlpha" result="hardAlpha" values="0 0 0 0 0 0 0 0 0 0 0 0 0 0 0 0 0 0 127 0"/><feOffset dy="4"/><feGaussianBlur stdDeviation="2"/><feComposite in2="hardAlpha" operator="out"/><feColorMatrix values="0 0 0 0 0 0 0 0 0 0 0 0 0 0 0 0 0 0 0.25 0"/><feBlend in2="BackgroundImageFix" result="effect1_dropShadow_1_1299"/><feBlend in="SourceGraphic" in2="effect1_dropShadow_1_1299" result="shape"/></filter><filter id="j" width="115.888" height="51.77" x="121.41" y="296.756" color-interpolation-filters="sRGB" filterUnits="userSpaceOnUse"><feFlood flood-opacity="0" result="BackgroundImageFix"/><feColorMatrix in="SourceAlpha" result="hardAlpha" values="0 0 0 0 0 0 0 0 0 0 0 0 0 0 0 0 0 0 127 0"/><feOffset dy="4"/><feGaussianBlur stdDeviation="2"/><feComposite in2="hardAlpha" operator="out"/><feColorMatrix values="0 0 0 0 0 0 0 0 0 0 0 0 0 0 0 0 0 0 0.25 0"/><feBlend in2="BackgroundImageFix" result="effect1_dropShadow_1_1299"/><feBlend in="SourceGraphic" in2="effect1_dropShadow_1_1299" result="shape"/></filter><filter id="k" width="21.468" height="21.468" x="234.277" y=".026" color-interpolation-filters="sRGB" filterUnits="userSpaceOnUse"><feFlood flood-opacity="0" result="BackgroundImageFix"/><feColorMatrix in="SourceAlpha" result="hardAlpha" values="0 0 0 0 0 0 0 0 0 0 0 0 0 0 0 0 0 0 127 0"/><feOffset dy="4"/><feGaussianBlur stdDeviation="2"/><feComposite in2="hardAlpha" operator="out"/><feColorMatrix values="0 0 0 0 0 0 0 0 0 0 0 0 0 0 0 0 0 0 0.25 0"/><feBlend in2="BackgroundImageFix" result="effect1_dropShadow_1_1299"/><feBlend in="SourceGraphic" in2="effect1_dropShadow_1_1299" result="shape"/></filter><filter id="l" width="39.034" height="39.034" x="134.73" y="29.303" color-interpolation-filters="sRGB" filterUnits="userSpaceOnUse"><feFlood flood-opacity="0" result="BackgroundImageFix"/><feColorMatrix in="SourceAlpha" result="hardAlpha" values="0 0 0 0 0 0 0 0 0 0 0 0 0 0 0 0 0 0 127 0"/><feOffset dy="4"/><feGaussianBlur stdDeviation="2"/><feComposite in2="hardAlpha" operator="out"/><feColorMatrix values="0 0 0 0 0 0 0 0 0 0 0 0 0 0 0 0 0 0 0.25 0"/><feBlend in2="BackgroundImageFix" result="effect1_dropShadow_1_1299"/><feBlend in="SourceGraphic" in2="effect1_dropShadow_1_1299" result="shape"/></filter><filter id="m" width="21.468" height="21.468" x="282.586" y="83.76" color-interpolation-filters="sRGB" filterUnits="userSpaceOnUse"><feFlood flood-opacity="0" result="BackgroundImageFix"/><feColorMatrix in="SourceAlpha" result="hardAlpha" values="0 0 0 0 0 0 0 0 0 0 0 0 0 0 0 0 0 0 127 0"/><feOffset dy="4"/><feGaussianBlur stdDeviation="2"/><feComposite in2="hardAlpha" operator="out"/><feColorMatrix values="0 0 0 0 0 0 0 0 0 0 0 0 0 0 0 0 0 0 0.25 0"/><feBlend in2="BackgroundImageFix" result="effect1_dropShadow_1_1299"/><feBlend in="SourceGraphic" in2="effect1_dropShadow_1_1299" result="shape"/></filter><filter id="n" width="21.468" height="21.468" x="156.688" y="118.6" color-interpolation-filters="sRGB" filterUnits="userSpaceOnUse"><feFlood flood-opacity="0" result="BackgroundImageFix"/><feColorMatrix in="SourceAlpha" result="hardAlpha" values="0 0 0 0 0 0 0 0 0 0 0 0 0 0 0 0 0 0 127 0"/><feOffset dy="4"/><feGaussianBlur stdDeviation="2"/><feComposite in2="hardAlpha" operator="out"/><feColorMatrix values="0 0 0 0 0 0 0 0 0 0 0 0 0 0 0 0 0 0 0.25 0"/><feBlend in2="BackgroundImageFix" result="effect1_dropShadow_1_1299"/><feBlend in="SourceGraphic" in2="effect1_dropShadow_1_1299" result="shape"/></filter><filter id="o" width="39.034" height="39.034" x="222.566" y="149.342" color-interpolation-filters="sRGB" filterUnits="userSpaceOnUse"><feFlood flood-opacity="0" result="BackgroundImageFix"/><feColorMatrix in="SourceAlpha" result="hardAlpha" values="0 0 0 0 0 0 0 0 0 0 0 0 0 0 0 0 0 0 127 0"/><feOffset dy="4"/><feGaussianBlur stdDeviation="2"/><feComposite in2="hardAlpha" operator="out"/><feColorMatrix values="0 0 0 0 0 0 0 0 0 0 0 0 0 0 0 0 0 0 0.25 0"/><feBlend in2="BackgroundImageFix" result="effect1_dropShadow_1_1299"/><feBlend in="SourceGraphic" in2="effect1_dropShadow_1_1299" result="shape"/></filter><filter id="p" width="21.468" height="21.468" x="99.594" y="197.651" color-interpolation-filters="sRGB" filterUnits="userSpaceOnUse"><feFlood flood-opacity="0" result="BackgroundImageFix"/><feColorMatrix in="SourceAlpha" result="hardAlpha" values="0 0 0 0 0 0 0 0 0 0 0 0 0 0 0 0 0 0 127 0"/><feOffset dy="4"/><feGaussianBlur stdDeviation="2"/><feComposite in2="hardAlpha" operator="out"/><feColorMatrix values="0 0 0 0 0 0 0 0 0 0 0 0 0 0 0 0 0 0 0.25 0"/><feBlend in2="BackgroundImageFix" result="effect1_dropShadow_1_1299"/><feBlend in="SourceGraphic" in2="effect1_dropShadow_1_1299" result="shape"/></filter><filter id="q" width="21.468" height="21.468" x="270.875" y="251.815" color-interpolation-filters="sRGB" filterUnits="userSpaceOnUse"><feFlood flood-opacity="0" result="BackgroundImageFix"/><feColorMatrix in="SourceAlpha" result="hardAlpha" values="0 0 0 0 0 0 0 0 0 0 0 0 0 0 0 0 0 0 127 0"/><feOffset dy="4"/><feGaussianBlur stdDeviation="2"/><feComposite in2="hardAlpha" operator="out"/><feColorMatrix values="0 0 0 0 0 0 0 0 0 0 0 0 0 0 0 0 0 0 0.25 0"/><feBlend in2="BackgroundImageFix" result="effect1_dropShadow_1_1299"/><feBlend in="SourceGraphic" in2="effect1_dropShadow_1_1299" result="shape"/></filter><filter id="r" width="39.034" height="39.034" x="177.188" y="282.264" color-interpolation-filters="sRGB" filterUnits="userSpaceOnUse"><feFlood flood-opacity="0" result="BackgroundImageFix"/><feColorMatrix in="SourceAlpha" result="hardAlpha" values="0 0 0 0 0 0 0 0 0 0 0 0 0 0 0 0 0 0 127 0"/><feOffset dy="4"/><feGaussianBlur stdDeviation="2"/><feComposite in2="hardAlpha" operator="out"/><feColorMatrix values="0 0 0 0 0 0 0 0 0 0 0 0 0 0 0 0 0 0 0.25 0"/><feBlend in2="BackgroundImageFix" result="effect1_dropShadow_1_1299"/><feBlend in="SourceGraphic" in2="effect1_dropShadow_1_1299" result="shape"/></filter><filter id="s" width="21.468" height="21.468" x="222.566" y="332.327" color-interpolation-filters="sRGB" filterUnits="userSpaceOnUse"><feFlood flood-opacity="0" result="BackgroundImageFix"/><feColorMatrix in="SourceAlpha" result="hardAlpha" values="0 0 0 0 0 0 0 0 0 0 0 0 0 0 0 0 0 0 127 0"/><feOffset dy="4"/><feGaussianBlur stdDeviation="2"/><feComposite in2="hardAlpha" operator="out"/><feColorMatrix values="0 0 0 0 0 0 0 0 0 0 0 0 0 0 0 0 0 0 0.25 0"/><feBlend in2="BackgroundImageFix" result="effect1_dropShadow_1_1299"/><feBlend in="SourceGraphic" in2="effect1_dropShadow_1_1299" result="shape"/></filter><filter id="t" width="21.468" height="21.468" x="100.043" y="363.506" color-interpolation-filters="sRGB" filterUnits="userSpaceOnUse"><feFlood flood-opacity="0" result="BackgroundImageFix"/><feColorMatrix in="SourceAlpha" result="hardAlpha" values="0 0 0 0 0 0 0 0 0 0 0 0 0 0 0 0 0 0 127 0"/><feOffset dy="4"/><feGaussianBlur stdDeviation="2"/><feComposite in2="hardAlpha" operator="out"/><feColorMatrix values="0 0 0 0 0 0 0 0 0 0 0 0 0 0 0 0 0 0 0.25 0"/><feBlend in2="BackgroundImageFix" result="effect1_dropShadow_1_1299"/><feBlend in="SourceGraphic" in2="effect1_dropShadow_1_1299" result="shape"/></filter></defs></svg>